<?xml version="1.0" encoding="UTF-8" standalone="no"?>
<!DOCTYPE svg PUBLIC "-//W3C//DTD SVG 1.1//EN" "http://www.w3.org/Graphics/SVG/1.1/DTD/svg11.dtd">
<svg xmlns="http://www.w3.org/2000/svg" version="1.1" viewBox="0 0 500 556" width="500.0pt" height="556.0pt" xmlns:xlink="http://www.w3.org/1999/xlink">
<defs>
<path d="M 0.00 0.00 L 500.00 0.00 L 500.00 534.03 C 333.34 533.94 166.66 534.06 0.00 533.97 L 0.00 0.00 Z M 23.70 378.79 C 28.38 376.75 33.15 374.91 37.79 372.78 C 48.96 367.40 59.82 361.17 71.22 356.29 C 81.81 351.63 92.34 346.90 102.67 341.69 C 110.18 337.84 117.96 334.70 125.72 331.40 C 126.38 350.60 126.37 369.80 126.07 389.00 C 125.89 398.43 126.35 407.84 126.49 417.29 C 149.84 417.50 173.15 417.51 196.50 417.00 C 196.89 382.66 196.68 348.33 196.94 314.00 C 197.06 309.02 196.66 303.94 197.21 298.99 C 199.26 296.80 202.11 295.25 204.61 293.61 C 214.08 287.93 224.10 283.06 233.83 277.83 C 257.41 265.42 280.99 253.01 304.58 240.61 C 335.41 224.10 366.23 207.55 397.06 191.06 C 410.63 184.04 424.19 177.05 437.36 169.31 C 445.86 164.21 454.90 160.49 463.45 155.46 C 467.50 153.16 471.38 150.60 475.25 148.01 C 475.40 128.34 475.61 108.67 475.73 89.00 C 475.61 69.33 475.41 49.66 475.25 29.99 C 460.58 33.46 448.69 41.51 435.51 48.50 C 388.73 73.40 341.90 98.22 295.14 123.14 C 239.26 152.94 183.42 182.81 127.47 212.46 C 95.58 229.32 63.96 246.60 31.68 262.71 C 26.57 265.39 21.01 270.68 21.71 277.00 C 21.72 303.66 21.54 330.34 21.52 357.00 C 21.50 364.39 22.30 371.55 23.70 378.79 Z M 349.14 327.92 C 347.67 330.97 346.41 334.13 345.06 337.24 C 335.36 337.55 325.69 337.59 316.00 337.36 C 301.46 337.03 287.35 338.35 272.88 338.65 C 272.23 333.77 271.46 328.90 270.98 324.00 C 270.37 317.86 270.53 311.71 269.82 305.58 C 269.63 303.96 269.41 302.35 269.18 300.73 C 257.27 304.98 244.70 309.95 234.40 317.39 C 230.00 320.56 229.90 325.02 229.62 329.99 C 229.12 347.65 230.11 365.33 229.56 383.00 C 229.21 394.01 229.11 404.88 231.41 415.72 C 234.09 416.07 236.78 416.42 239.46 416.77 C 239.56 414.47 239.67 412.18 239.76 409.88 C 239.73 412.21 239.74 414.54 239.75 416.86 C 250.27 417.70 260.53 416.57 270.74 413.99 C 272.23 399.03 270.79 383.89 272.65 369.16 C 273.08 366.31 274.21 364.02 277.14 363.12 C 283.97 360.98 291.90 361.62 299.00 361.23 C 313.84 361.06 329.18 359.68 343.92 361.44 C 345.39 379.27 344.55 397.06 345.07 414.92 C 347.21 415.18 349.36 415.44 351.50 415.71 C 351.47 411.41 351.46 407.12 351.55 402.82 C 351.62 407.14 351.78 411.45 351.86 415.76 C 370.41 417.28 389.34 416.01 408.00 416.29 C 426.87 416.55 445.70 416.65 464.54 415.52 C 466.26 402.68 466.24 389.93 466.18 377.00 C 465.72 352.67 466.31 328.32 465.76 304.00 C 465.53 289.67 465.23 275.33 465.05 261.00 C 465.09 250.00 465.34 238.99 465.58 227.99 C 465.75 219.00 466.63 209.73 465.87 200.85 C 465.65 198.32 465.34 195.79 465.04 193.26 C 457.74 195.51 450.70 198.24 444.05 202.05 C 420.32 215.17 396.49 228.07 372.26 240.25 C 364.74 243.90 356.59 246.98 349.65 251.66 C 345.98 254.06 345.42 257.95 344.96 261.98 C 344.35 269.91 345.33 278.06 345.63 286.00 C 346.32 299.92 345.38 314.42 349.14 327.92 Z M 130.55 446.83 C 130.26 452.87 130.50 458.94 130.44 464.99 C 131.30 464.99 132.17 465.00 133.03 465.00 C 133.02 458.63 133.15 452.22 132.87 445.87 C 132.09 446.18 131.32 446.50 130.55 446.83 Z M 194.52 446.82 C 194.23 452.86 194.47 458.93 194.41 464.98 C 195.28 464.99 196.15 465.00 197.02 465.01 C 197.01 461.60 197.00 458.18 196.97 454.77 C 198.66 454.41 200.33 454.04 202.06 453.87 C 203.89 456.87 202.93 461.58 203.16 465.00 C 204.07 465.00 204.98 465.00 205.89 465.00 C 205.72 461.21 206.54 456.51 204.99 453.00 C 203.00 450.01 199.76 451.69 197.00 452.28 C 196.98 450.15 196.94 448.02 196.87 445.89 C 196.09 446.19 195.30 446.50 194.52 446.82 Z M 232.15 446.09 C 232.11 447.85 232.09 449.61 232.06 451.37 C 229.58 451.43 226.77 450.84 224.86 452.83 C 222.31 455.30 222.24 460.93 224.30 463.69 C 226.16 466.07 229.04 464.99 231.58 464.76 C 232.66 464.86 233.73 464.98 234.81 465.09 C 234.77 458.99 234.95 452.88 234.74 446.78 C 233.88 446.54 233.02 446.31 232.15 446.09 Z M 247.14 446.44 C 247.14 452.62 247.15 458.80 247.13 464.98 C 250.68 464.89 255.61 466.54 257.87 462.87 C 259.59 460.15 259.65 455.05 257.36 452.61 C 255.40 450.39 252.35 451.68 249.87 451.93 C 249.88 450.09 249.89 448.26 249.90 446.43 C 248.98 446.44 248.06 446.44 247.14 446.44 Z M 281.63 449.40 C 284.01 449.62 286.40 449.76 288.80 449.86 C 288.80 454.91 288.80 459.96 288.81 465.01 C 289.73 465.00 290.65 464.99 291.56 464.98 C 291.56 459.92 291.56 454.85 291.57 449.79 C 293.64 449.76 295.71 449.74 297.77 449.70 C 297.78 448.87 297.79 448.03 297.80 447.19 C 293.06 447.27 288.01 446.67 283.35 447.46 L 281.63 449.40 Z M 298.71 447.20 C 298.99 447.97 299.28 448.75 299.58 449.52 C 300.43 449.84 301.27 450.15 302.12 450.45 C 302.17 449.27 302.21 448.09 302.26 446.90 C 301.07 447.00 299.89 447.10 298.71 447.20 Z M 344.98 447.05 C 345.00 447.99 345.02 448.93 345.04 449.86 C 346.02 449.90 346.99 449.93 347.96 449.96 C 347.99 448.96 348.01 447.96 348.03 446.97 C 347.01 446.99 346.00 447.02 344.98 447.05 Z M 390.32 464.99 C 391.23 465.00 392.14 465.00 393.05 465.00 C 393.06 462.19 393.06 459.39 393.06 456.58 C 395.82 456.58 398.58 456.58 401.34 456.58 C 401.35 459.39 401.35 462.19 401.35 464.99 C 402.27 465.00 403.18 465.00 404.09 465.00 C 404.10 459.04 404.11 453.07 404.08 447.10 C 403.18 447.13 402.28 447.17 401.39 447.21 C 401.36 449.48 401.35 451.75 401.33 454.02 C 398.59 454.02 395.86 454.02 393.12 454.02 C 393.06 451.46 393.00 448.90 392.83 446.35 C 392.07 446.83 391.33 447.33 390.60 447.86 C 389.89 453.46 390.50 459.33 390.32 464.99 Z M 306.59 447.88 C 306.29 448.83 305.99 449.77 305.68 450.72 C 305.39 451.55 305.11 452.37 304.82 453.20 C 305.25 453.67 305.69 454.14 306.13 454.61 C 306.31 457.47 305.70 461.25 307.10 463.83 C 308.87 466.27 312.15 465.20 314.28 463.86 C 312.60 463.26 310.74 462.82 309.17 461.97 C 308.84 459.48 308.90 456.91 308.87 454.40 C 311.01 453.92 312.76 453.51 314.43 451.97 C 312.61 451.76 310.79 451.57 308.98 451.41 C 308.95 450.22 308.92 449.03 308.90 447.84 C 308.13 447.85 307.36 447.87 306.59 447.88 Z M 423.90 447.90 C 423.55 448.88 423.20 449.85 422.84 450.82 C 422.53 451.65 422.21 452.47 421.89 453.30 C 422.41 453.70 422.92 454.10 423.44 454.50 C 423.54 457.43 423.10 460.93 424.21 463.70 C 426.06 466.24 429.60 465.45 431.70 463.61 C 430.24 462.99 427.25 463.19 426.41 461.64 C 425.92 459.17 426.04 456.55 425.97 454.04 C 427.89 453.88 429.81 453.67 431.72 453.44 C 430.12 451.75 428.25 451.60 426.10 451.11 C 426.08 450.01 426.05 448.91 426.03 447.81 C 425.32 447.84 424.61 447.87 423.90 447.90 Z M 136.18 454.09 C 139.62 453.90 142.63 453.55 145.79 455.20 C 143.32 455.90 140.68 456.31 138.30 457.29 C 135.54 458.45 135.25 462.66 137.54 464.44 C 139.26 466.03 142.47 464.92 144.56 464.66 C 145.58 464.82 146.59 464.98 147.61 465.13 C 147.54 461.46 148.01 457.43 147.10 453.85 C 146.08 450.97 141.59 450.95 139.15 451.40 C 137.68 451.61 137.11 453.10 136.18 454.09 Z M 159.60 464.66 C 160.67 464.81 161.73 464.97 162.79 465.13 C 162.80 460.62 162.80 456.11 162.78 451.59 C 161.89 451.57 161.00 451.56 160.11 451.54 C 160.07 455.08 160.03 458.61 159.91 462.15 C 158.26 462.13 155.13 463.73 154.40 461.62 C 153.66 458.11 154.06 454.32 153.72 450.74 C 153.08 451.41 151.32 451.89 151.41 452.98 C 151.16 456.36 150.80 460.56 152.23 463.70 C 153.79 466.25 157.23 464.93 159.60 464.66 Z M 166.72 451.72 C 166.72 456.14 166.72 460.57 166.72 465.00 L 169.33 465.00 C 169.33 461.61 169.33 458.22 169.33 454.84 C 171.23 454.42 173.14 454.04 175.05 453.69 C 175.33 457.46 175.42 461.22 175.45 465.00 C 176.30 465.00 177.15 465.00 178.00 465.00 C 177.70 461.22 179.01 455.44 176.72 452.27 C 174.26 450.47 169.64 451.96 166.72 451.72 Z M 192.72 461.62 C 190.73 462.02 188.28 463.19 186.26 462.78 C 183.17 461.51 183.12 456.37 185.34 454.33 C 187.20 453.16 190.05 454.53 192.06 454.91 C 192.01 453.89 191.97 452.87 191.93 451.85 C 189.73 451.62 186.90 450.92 184.81 451.81 C 180.13 453.68 179.72 461.60 183.72 464.29 C 186.99 465.91 191.80 466.16 192.72 461.62 Z M 221.48 461.81 C 219.13 462.17 216.58 463.01 214.19 462.82 C 212.64 462.21 211.66 460.19 210.61 458.99 C 214.18 458.85 217.75 458.81 221.33 458.70 C 220.78 456.79 220.54 454.31 219.28 452.73 C 216.30 449.86 210.46 451.12 209.14 455.13 C 208.05 458.20 208.42 462.72 211.62 464.40 C 215.04 465.88 219.98 466.09 221.48 461.81 Z M 314.85 454.07 C 318.15 453.89 321.11 453.56 324.17 455.09 C 321.02 456.04 317.85 456.89 314.74 457.96 C 314.95 460.51 313.94 463.97 317.06 465.03 C 319.97 465.51 323.08 464.96 326.01 464.86 C 325.92 461.15 326.43 457.06 325.49 453.46 C 323.97 450.81 319.11 450.72 316.65 451.79 C 316.02 452.52 315.42 453.28 314.85 454.07 Z M 333.76 451.54 C 332.51 451.60 331.25 451.65 330.00 451.70 C 330.00 456.13 330.00 460.57 330.00 465.01 C 330.88 465.00 331.76 464.99 332.64 464.99 C 332.64 461.59 332.64 458.19 332.65 454.79 C 334.49 454.38 336.34 454.01 338.20 453.66 C 338.66 457.43 338.76 461.21 338.78 465.00 L 341.33 465.00 C 341.26 461.20 341.73 456.98 340.68 453.30 C 339.35 450.57 336.18 451.55 333.76 451.54 Z M 345.18 465.00 C 346.09 465.00 347.00 465.00 347.91 465.00 C 347.91 460.26 348.01 455.58 347.70 450.84 C 346.93 451.29 346.17 451.76 345.42 452.24 C 344.81 456.41 345.24 460.79 345.18 465.00 Z M 351.66 451.16 C 351.81 455.08 350.76 460.70 352.82 464.17 C 355.12 466.17 360.10 464.63 363.00 464.83 C 362.98 460.39 362.98 455.95 362.95 451.51 C 362.07 451.54 361.20 451.57 360.32 451.61 C 360.29 454.96 360.56 458.51 359.87 461.80 C 358.30 462.53 355.28 463.98 354.64 461.41 C 353.93 458.39 354.31 455.07 354.08 451.98 C 353.28 451.69 352.47 451.42 351.66 451.16 Z M 367.00 451.66 C 367.00 456.11 367.00 460.56 367.00 465.01 C 367.88 465.00 368.76 464.99 369.64 464.99 C 369.64 461.58 369.64 458.17 369.65 454.75 C 371.45 454.38 373.25 454.04 375.06 453.71 C 375.30 457.47 375.37 461.23 375.39 465.00 C 376.26 465.00 377.13 465.00 378.00 465.00 C 378.00 461.63 378.00 458.27 377.98 454.90 C 379.75 454.43 381.54 453.99 383.33 453.57 C 383.87 457.36 383.97 461.17 383.98 465.00 L 386.52 465.00 C 386.45 461.18 386.96 456.86 385.82 453.18 C 383.72 449.84 380.56 451.68 377.63 452.47 C 374.10 451.10 370.67 451.58 367.00 451.66 Z M 416.60 464.66 C 417.66 464.81 418.73 464.97 419.79 465.13 C 419.80 460.62 419.80 456.11 419.78 451.59 C 418.89 451.57 418.00 451.56 417.11 451.54 C 417.07 455.08 417.03 458.61 416.91 462.15 C 415.26 462.13 412.13 463.73 411.40 461.62 C 410.66 458.11 411.06 454.32 410.72 450.74 C 410.08 451.41 408.32 451.89 408.41 452.98 C 408.16 456.36 407.80 460.56 409.23 463.70 C 410.80 466.25 414.23 464.93 416.60 464.66 Z M 260.60 451.15 C 262.18 455.57 264.05 459.86 265.87 464.18 C 265.04 466.13 264.22 468.08 263.42 470.04 C 264.43 469.94 265.44 469.84 266.44 469.74 C 268.91 463.42 271.95 457.32 274.13 450.90 C 269.57 451.98 269.18 457.22 267.38 460.79 C 266.19 457.87 265.06 454.90 263.68 452.07 C 262.66 451.75 261.63 451.44 260.60 451.15 Z M 299.45 464.99 C 300.31 464.99 301.17 465.00 302.03 465.00 C 302.04 460.25 302.14 455.52 301.80 450.78 C 300.95 451.36 300.26 451.89 299.73 452.39 C 299.05 456.48 299.52 460.84 299.45 464.99 Z" id="p0" />
<path d="M 475.25 29.99 C 475.41 49.66 475.61 69.33 475.73 89.00 C 475.61 108.67 475.40 128.34 475.25 148.01 C 471.38 150.60 467.50 153.16 463.45 155.46 C 454.90 160.49 445.86 164.21 437.36 169.31 C 424.19 177.05 410.63 184.04 397.06 191.06 C 366.23 207.55 335.41 224.10 304.58 240.61 C 280.99 253.01 257.41 265.42 233.83 277.83 C 224.10 283.06 214.08 287.93 204.61 293.61 C 202.11 295.25 199.26 296.80 197.21 298.99 C 196.66 303.94 197.06 309.02 196.94 314.00 C 196.68 348.33 196.89 382.66 196.50 417.00 C 173.15 417.51 149.84 417.50 126.49 417.29 C 126.35 407.84 125.89 398.43 126.07 389.00 C 126.37 369.80 126.38 350.60 125.72 331.40 C 117.96 334.70 110.18 337.84 102.67 341.69 C 92.34 346.90 81.81 351.63 71.22 356.29 C 59.82 361.17 48.96 367.40 37.79 372.78 C 33.15 374.91 28.38 376.75 23.70 378.79 C 22.30 371.55 21.50 364.39 21.52 357.00 C 21.54 330.34 21.72 303.66 21.71 277.00 C 21.01 270.68 26.57 265.39 31.68 262.71 C 63.96 246.60 95.58 229.32 127.47 212.46 C 183.42 182.81 239.26 152.94 295.14 123.14 C 341.90 98.22 388.73 73.40 435.51 48.50 C 448.69 41.51 460.58 33.46 475.25 29.99 Z M 390.08 191.87 C 391.17 192.10 393.30 191.75 392.78 190.20 C 391.55 189.18 390.36 190.73 390.08 191.87 Z M 309.08 234.88 C 310.18 235.11 312.31 234.75 311.79 233.20 C 310.56 232.19 309.37 233.73 309.08 234.88 Z M 28.12 266.53 C 27.35 267.17 27.35 267.82 28.13 268.46 C 29.88 268.84 29.88 266.15 28.12 266.53 Z M 245.08 268.87 C 246.17 269.10 248.30 268.74 247.78 267.20 C 246.55 266.18 245.36 267.73 245.08 268.87 Z M 27.12 270.54 C 26.35 271.18 26.35 271.83 27.13 272.47 C 28.88 272.84 28.87 270.16 27.12 270.54 Z M 26.73 274.69 C 25.29 274.26 25.29 278.81 26.73 278.38 C 27.57 277.55 27.57 275.51 26.73 274.69 Z M 24.81 281.06 C 25.00 284.20 25.22 287.34 25.54 290.47 C 25.81 287.33 26.00 284.18 26.15 281.03 L 24.81 281.06 Z M 194.80 298.57 C 193.38 298.29 193.22 300.66 194.20 301.26 C 195.63 301.54 195.78 299.18 194.80 298.57 Z M 193.53 317.18 C 194.08 312.23 194.22 307.31 193.58 302.36 C 192.71 307.31 192.86 312.22 193.53 317.18 Z M 25.48 305.77 C 24.47 318.45 25.19 331.28 25.05 344.00 C 25.22 352.38 24.48 360.22 25.54 368.49 C 26.50 359.07 25.72 349.48 25.96 340.00 C 25.84 328.62 26.51 317.11 25.48 305.77 Z M 193.47 324.52 C 192.92 330.01 192.92 335.50 192.99 341.00 C 193.02 355.00 192.99 369.00 193.00 383.00 C 193.03 390.49 192.69 397.86 193.52 405.33 C 193.87 401.56 194.06 397.79 194.04 394.00 C 193.96 378.33 194.02 362.67 194.00 347.00 C 193.95 339.45 194.35 332.05 193.47 324.52 Z M 114.50 333.12 C 114.37 334.10 114.82 334.53 115.86 334.40 C 117.48 333.37 115.52 331.66 114.50 333.12 Z M 129.47 335.54 C 128.66 342.72 129.11 349.80 129.03 357.00 C 128.97 367.67 128.97 378.33 129.04 389.00 C 129.11 396.54 128.60 403.94 129.53 411.47 C 130.36 403.95 129.90 396.53 129.96 389.00 C 130.02 378.33 130.03 367.67 129.96 357.00 C 129.89 349.79 130.38 342.73 129.47 335.54 Z M 102.29 338.09 L 102.29 338.91 L 103.01 339.32 L 103.72 338.91 L 103.72 338.09 L 103.01 337.68 L 102.29 338.09 Z M 86.63 346.23 C 85.73 345.43 83.02 346.47 83.45 347.80 C 84.34 348.59 87.05 347.55 86.63 346.23 Z M 30.31 372.09 L 30.30 372.91 L 31.02 373.32 L 31.74 372.91 L 31.74 372.09 L 31.02 371.68 L 30.31 372.09 Z M 191.25 412.46 C 188.80 413.00 186.30 413.33 183.82 413.69 C 186.86 413.85 189.90 414.01 192.94 414.16 C 193.02 412.83 193.10 411.51 193.18 410.18 C 192.55 410.95 191.90 411.71 191.25 412.46 Z M 129.98 412.81 L 129.98 414.23 C 132.80 413.99 135.63 413.74 138.45 413.46 C 135.63 413.22 132.80 413.01 129.98 412.81 Z M 142.69 414.52 C 150.49 415.34 158.19 414.91 166.00 415.04 C 170.78 415.11 175.55 414.99 180.31 414.48 C 172.51 413.66 164.81 414.09 157.00 413.96 C 152.22 413.89 147.45 414.01 142.69 414.52 Z" id="p1" />
<path d="M 392.78 190.20 C 393.30 191.75 391.17 192.10 390.08 191.87 C 390.36 190.73 391.55 189.18 392.78 190.20 Z" id="p2" />
<path d="M 465.04 193.26 C 465.34 195.79 465.65 198.32 465.87 200.85 C 451.63 209.73 436.65 217.13 421.69 224.69 C 410.73 230.32 399.88 236.18 389.02 242.01 C 381.19 246.20 372.96 249.77 365.33 254.31 C 362.31 256.21 358.56 258.81 357.57 262.43 C 353.95 279.81 357.98 296.20 355.91 313.05 C 355.27 318.87 351.71 322.86 349.14 327.92 C 345.38 314.42 346.32 299.92 345.63 286.00 C 345.33 278.06 344.35 269.91 344.96 261.98 C 345.42 257.95 345.98 254.06 349.65 251.66 C 356.59 246.98 364.74 243.90 372.26 240.25 C 396.49 228.07 420.32 215.17 444.05 202.05 C 450.70 198.24 457.74 195.51 465.04 193.26 Z" id="p3" />
<path d="M 465.87 200.85 C 466.63 209.73 465.75 219.00 465.58 227.99 C 465.34 238.99 465.09 250.00 465.05 261.00 C 465.23 275.33 465.53 289.67 465.76 304.00 C 466.31 328.32 465.72 352.67 466.18 377.00 C 466.24 389.93 466.26 402.68 464.54 415.52 C 445.70 416.65 426.87 416.55 408.00 416.29 C 389.34 416.01 370.41 417.28 351.86 415.76 C 351.78 411.45 351.62 407.14 351.55 402.82 C 351.70 392.50 352.37 381.73 351.27 371.45 C 350.68 366.91 347.34 364.06 343.92 361.44 C 329.18 359.68 313.84 361.06 299.00 361.23 C 291.90 361.62 283.97 360.98 277.14 363.12 C 274.21 364.02 273.08 366.31 272.65 369.16 C 270.79 383.89 272.23 399.03 270.74 413.99 C 260.53 416.57 250.27 417.70 239.75 416.86 C 239.74 414.54 239.73 412.21 239.76 409.88 C 240.57 393.25 240.46 376.64 240.12 360.00 C 240.06 349.48 239.64 339.45 241.01 328.96 C 241.33 327.22 241.43 325.18 242.85 323.92 C 245.45 321.48 248.79 319.72 251.78 317.80 C 258.00 314.01 263.86 309.75 269.82 305.58 C 270.53 311.71 270.37 317.86 270.98 324.00 C 271.46 328.90 272.23 333.77 272.88 338.65 C 287.35 338.35 301.46 337.03 316.00 337.36 C 325.69 337.59 335.36 337.55 345.06 337.24 C 346.41 334.13 347.67 330.97 349.14 327.92 C 351.71 322.86 355.27 318.87 355.91 313.05 C 357.98 296.20 353.95 279.81 357.57 262.43 C 358.56 258.81 362.31 256.21 365.33 254.31 C 372.96 249.77 381.19 246.20 389.02 242.01 C 399.88 236.18 410.73 230.32 421.69 224.69 C 436.65 217.13 451.63 209.73 465.87 200.85 Z" id="p4" />
<path d="M 311.79 233.20 C 312.31 234.75 310.18 235.11 309.08 234.88 C 309.37 233.73 310.56 232.19 311.79 233.20 Z" id="p5" />
<path d="M 28.12 266.53 C 29.88 266.15 29.88 268.84 28.13 268.46 C 27.35 267.82 27.35 267.17 28.12 266.53 Z" id="p6" />
<path d="M 247.78 267.20 C 248.30 268.74 246.17 269.10 245.08 268.87 C 245.36 267.73 246.55 266.18 247.78 267.20 Z" id="p7" />
<path d="M 27.12 270.54 C 28.87 270.16 28.88 272.84 27.13 272.47 C 26.35 271.83 26.35 271.18 27.12 270.54 Z" id="p8" />
<path d="M 26.73 274.69 C 27.57 275.51 27.57 277.55 26.73 278.38 C 25.29 278.81 25.29 274.26 26.73 274.69 Z" id="p9" />
<path d="M 24.81 281.06 L 26.15 281.03 C 26.00 284.18 25.81 287.33 25.54 290.47 C 25.22 287.34 25.00 284.20 24.81 281.06 Z" id="p10" />
<path d="M 194.80 298.57 C 195.78 299.18 195.63 301.54 194.20 301.26 C 193.22 300.66 193.38 298.29 194.80 298.57 Z" id="p11" />
<path d="M 269.18 300.73 C 269.41 302.35 269.63 303.96 269.82 305.58 C 263.86 309.75 258.00 314.01 251.78 317.80 C 248.79 319.72 245.45 321.48 242.85 323.92 C 241.43 325.18 241.33 327.22 241.01 328.96 C 239.64 339.45 240.06 349.48 240.12 360.00 C 240.46 376.64 240.57 393.25 239.76 409.88 C 239.67 412.18 239.56 414.47 239.46 416.77 C 236.78 416.42 234.09 416.07 231.41 415.72 C 229.11 404.88 229.21 394.01 229.56 383.00 C 230.11 365.33 229.12 347.65 229.62 329.99 C 229.90 325.02 230.00 320.56 234.40 317.39 C 244.70 309.95 257.27 304.98 269.18 300.73 Z" id="p12" />
<path d="M 193.58 302.36 C 194.22 307.31 194.08 312.23 193.53 317.18 C 192.86 312.22 192.71 307.31 193.58 302.36 Z" id="p13" />
<path d="M 25.48 305.77 C 26.51 317.11 25.84 328.62 25.96 340.00 C 25.72 349.48 26.50 359.07 25.54 368.49 C 24.48 360.22 25.22 352.38 25.05 344.00 C 25.19 331.28 24.47 318.45 25.48 305.77 Z" id="p14" />
<path d="M 193.47 324.52 C 194.35 332.05 193.95 339.45 194.00 347.00 C 194.02 362.67 193.96 378.33 194.04 394.00 C 194.06 397.79 193.87 401.56 193.52 405.33 C 192.69 397.86 193.03 390.49 193.00 383.00 C 192.99 369.00 193.02 355.00 192.99 341.00 C 192.92 335.50 192.92 330.01 193.47 324.52 Z" id="p15" />
<path d="M 114.50 333.12 C 115.52 331.66 117.48 333.37 115.86 334.40 C 114.82 334.53 114.37 334.10 114.50 333.12 Z" id="p16" />
<path d="M 129.47 335.54 C 130.38 342.73 129.89 349.79 129.96 357.00 C 130.03 367.67 130.02 378.33 129.96 389.00 C 129.90 396.53 130.36 403.95 129.53 411.47 C 128.60 403.94 129.11 396.54 129.04 389.00 C 128.97 378.33 128.97 367.67 129.03 357.00 C 129.11 349.80 128.66 342.72 129.47 335.54 Z" id="p17" />
<path d="M 102.29 338.09 L 103.01 337.68 L 103.72 338.09 L 103.72 338.91 L 103.01 339.32 L 102.29 338.91 L 102.29 338.09 Z" id="p18" />
<path d="M 86.63 346.23 C 87.05 347.55 84.34 348.59 83.45 347.80 C 83.02 346.47 85.73 345.43 86.63 346.23 Z" id="p19" />
<path d="M 343.92 361.44 C 347.34 364.06 350.68 366.91 351.27 371.45 C 352.37 381.73 351.70 392.50 351.55 402.82 C 351.46 407.12 351.47 411.41 351.50 415.71 C 349.36 415.44 347.21 415.18 345.07 414.92 C 344.55 397.06 345.39 379.27 343.92 361.44 Z" id="p20" />
<path d="M 30.31 372.09 L 31.02 371.68 L 31.74 372.09 L 31.74 372.91 L 31.02 373.32 L 30.30 372.91 L 30.31 372.09 Z" id="p21" />
<path d="M 193.18 410.18 C 193.10 411.51 193.02 412.83 192.94 414.16 C 189.90 414.01 186.86 413.85 183.82 413.69 C 186.30 413.33 188.80 413.00 191.25 412.46 C 191.90 411.71 192.55 410.95 193.18 410.18 Z" id="p22" />
<path d="M 129.98 412.81 C 132.80 413.01 135.63 413.22 138.45 413.46 C 135.63 413.74 132.80 413.99 129.98 414.23 L 129.98 412.81 Z" id="p23" />
<path d="M 157.00 413.96 C 164.81 414.09 172.51 413.66 180.31 414.48 C 175.55 414.99 170.78 415.11 166.00 415.04 C 158.19 414.91 150.49 415.34 142.69 414.52 C 147.45 414.01 152.22 413.89 157.00 413.96 Z" id="p24" />
<path d="M 132.87 445.87 C 133.15 452.22 133.02 458.63 133.03 465.00 C 132.17 465.00 131.30 464.99 130.44 464.99 C 130.50 458.94 130.26 452.87 130.55 446.83 C 131.32 446.50 132.09 446.18 132.87 445.87 Z" id="p25" />
<path d="M 196.87 445.89 C 196.94 448.02 196.98 450.15 197.00 452.28 C 199.76 451.69 203.00 450.01 204.99 453.00 C 206.54 456.51 205.72 461.21 205.89 465.00 C 204.98 465.00 204.07 465.00 203.16 465.00 C 202.93 461.58 203.89 456.87 202.06 453.87 C 200.33 454.04 198.66 454.41 196.97 454.77 C 197.00 458.18 197.01 461.60 197.02 465.01 C 196.15 465.00 195.28 464.99 194.41 464.98 C 194.47 458.93 194.23 452.86 194.52 446.82 C 195.30 446.50 196.09 446.19 196.87 445.89 Z" id="p26" />
<path d="M 232.15 446.09 C 233.02 446.31 233.88 446.54 234.74 446.78 C 234.95 452.88 234.77 458.99 234.81 465.09 C 233.73 464.98 232.66 464.86 231.58 464.76 C 229.04 464.99 226.16 466.07 224.30 463.69 C 222.24 460.93 222.31 455.30 224.86 452.83 C 226.77 450.84 229.58 451.43 232.06 451.37 C 232.09 449.61 232.11 447.85 232.15 446.09 Z M 232.05 462.20 C 232.06 459.35 232.06 456.50 232.06 453.65 C 230.31 454.04 227.22 453.52 226.29 455.35 C 225.30 457.24 225.49 459.78 226.22 461.73 C 227.75 463.41 230.11 462.31 232.05 462.20 Z" id="p27" />
<path d="M 247.14 446.44 C 248.06 446.44 248.98 446.44 249.90 446.43 C 249.89 448.26 249.88 450.09 249.87 451.93 C 252.35 451.68 255.40 450.39 257.36 452.61 C 259.65 455.05 259.59 460.15 257.87 462.87 C 255.61 466.54 250.68 464.89 247.13 464.98 C 247.15 458.80 247.14 452.62 247.14 446.44 Z M 249.84 454.80 C 249.81 457.42 249.79 460.18 250.28 462.77 C 252.30 462.98 254.13 463.41 255.56 461.61 C 256.53 459.96 256.61 457.04 255.80 455.31 C 254.99 452.67 251.73 454.52 249.84 454.80 Z" id="p28" />
<path d="M 283.35 447.46 C 288.01 446.67 293.06 447.27 297.80 447.19 C 297.79 448.03 297.78 448.87 297.77 449.70 C 295.71 449.74 293.64 449.76 291.57 449.79 C 291.56 454.85 291.56 459.92 291.56 464.98 C 290.65 464.99 289.73 465.00 288.81 465.01 C 288.80 459.96 288.80 454.91 288.80 449.86 C 286.40 449.76 284.01 449.62 281.63 449.40 L 283.35 447.46 Z" id="p29" />
<path d="M 298.71 447.20 C 299.89 447.10 301.07 447.00 302.26 446.90 C 302.21 448.09 302.17 449.27 302.12 450.45 C 301.27 450.15 300.43 449.84 299.58 449.52 C 299.28 448.75 298.99 447.97 298.71 447.20 Z" id="p30" />
<path d="M 344.98 447.05 C 346.00 447.02 347.01 446.99 348.03 446.97 C 348.01 447.96 347.99 448.96 347.96 449.96 C 346.99 449.93 346.02 449.90 345.04 449.86 C 345.02 448.93 345.00 447.99 344.98 447.05 Z" id="p31" />
<path d="M 390.60 447.86 C 391.33 447.33 392.07 446.83 392.83 446.35 C 393.00 448.90 393.06 451.46 393.12 454.02 C 395.86 454.02 398.59 454.02 401.33 454.02 C 401.35 451.75 401.36 449.48 401.39 447.21 C 402.28 447.17 403.18 447.13 404.08 447.10 C 404.11 453.07 404.10 459.04 404.09 465.00 C 403.18 465.00 402.27 465.00 401.35 464.99 C 401.35 462.19 401.35 459.39 401.34 456.58 C 398.58 456.58 395.82 456.58 393.06 456.58 C 393.06 459.39 393.06 462.19 393.05 465.00 C 392.14 465.00 391.23 465.00 390.32 464.99 C 390.50 459.33 389.89 453.46 390.60 447.86 Z" id="p32" />
<path d="M 306.59 447.88 C 307.36 447.87 308.13 447.85 308.90 447.84 C 308.92 449.03 308.95 450.22 308.98 451.41 C 310.79 451.57 312.61 451.76 314.43 451.97 C 312.76 453.51 311.01 453.92 308.87 454.40 C 308.90 456.91 308.84 459.48 309.17 461.97 C 310.74 462.82 312.60 463.26 314.28 463.86 C 312.15 465.20 308.87 466.27 307.10 463.83 C 305.70 461.25 306.31 457.47 306.13 454.61 C 305.69 454.14 305.25 453.67 304.82 453.20 C 305.11 452.37 305.39 451.55 305.68 450.72 C 305.99 449.77 306.29 448.83 306.59 447.88 Z" id="p33" />
<path d="M 423.90 447.90 C 424.61 447.87 425.32 447.84 426.03 447.81 C 426.05 448.91 426.08 450.01 426.10 451.11 C 428.25 451.60 430.12 451.75 431.72 453.44 C 429.81 453.67 427.89 453.88 425.97 454.04 C 426.04 456.55 425.92 459.17 426.41 461.64 C 427.25 463.19 430.24 462.99 431.70 463.61 C 429.60 465.45 426.06 466.24 424.21 463.70 C 423.10 460.93 423.54 457.43 423.44 454.50 C 422.92 454.10 422.41 453.70 421.89 453.30 C 422.21 452.47 422.53 451.65 422.84 450.82 C 423.20 449.85 423.55 448.88 423.90 447.90 Z" id="p34" />
<path d="M 139.15 451.40 C 141.59 450.95 146.08 450.97 147.10 453.85 C 148.01 457.43 147.54 461.46 147.61 465.13 C 146.59 464.98 145.58 464.82 144.56 464.66 C 142.47 464.92 139.26 466.03 137.54 464.44 C 135.25 462.66 135.54 458.45 138.30 457.29 C 140.68 456.31 143.32 455.90 145.79 455.20 C 142.63 453.55 139.62 453.90 136.18 454.09 C 137.11 453.10 137.68 451.61 139.15 451.40 Z M 138.12 462.43 C 140.41 462.53 142.62 462.46 144.90 462.25 C 144.90 460.77 144.91 459.30 144.92 457.83 C 143.24 458.33 141.34 458.64 139.81 459.51 C 139.21 460.46 138.65 461.43 138.12 462.43 Z" id="p35" />
<path d="M 153.72 450.74 C 154.06 454.32 153.66 458.11 154.40 461.62 C 155.13 463.73 158.26 462.13 159.91 462.15 C 160.03 458.61 160.07 455.08 160.11 451.54 C 161.00 451.56 161.89 451.57 162.78 451.59 C 162.80 456.11 162.80 460.62 162.79 465.13 C 161.73 464.97 160.67 464.81 159.60 464.66 C 157.23 464.93 153.79 466.25 152.23 463.70 C 150.80 460.56 151.16 456.36 151.41 452.98 C 151.32 451.89 153.08 451.41 153.72 450.74 Z" id="p36" />
<path d="M 176.72 452.27 C 179.01 455.44 177.70 461.22 178.00 465.00 C 177.15 465.00 176.30 465.00 175.45 465.00 C 175.42 461.22 175.33 457.46 175.05 453.69 C 173.14 454.04 171.23 454.42 169.33 454.84 C 169.33 458.22 169.33 461.61 169.33 465.00 L 166.72 465.00 C 166.72 460.57 166.72 456.14 166.72 451.72 C 169.64 451.96 174.26 450.47 176.72 452.27 Z" id="p37" />
<path d="M 191.93 451.85 C 191.97 452.87 192.01 453.89 192.06 454.91 C 190.05 454.53 187.20 453.16 185.34 454.33 C 183.12 456.37 183.17 461.51 186.26 462.78 C 188.28 463.19 190.73 462.02 192.72 461.62 C 191.80 466.16 186.99 465.91 183.72 464.29 C 179.72 461.60 180.13 453.68 184.81 451.81 C 186.90 450.92 189.73 451.62 191.93 451.85 Z" id="p38" />
<path d="M 219.28 452.73 C 220.54 454.31 220.78 456.79 221.33 458.70 C 217.75 458.81 214.18 458.85 210.61 458.99 C 211.66 460.19 212.64 462.21 214.19 462.82 C 216.58 463.01 219.13 462.17 221.48 461.81 C 219.98 466.09 215.04 465.88 211.62 464.40 C 208.42 462.72 208.05 458.20 209.14 455.13 C 210.46 451.12 216.30 449.86 219.28 452.73 Z M 210.60 456.43 C 213.38 456.60 216.14 456.60 218.92 456.47 C 217.61 455.32 216.49 453.12 214.44 453.58 C 212.97 454.03 211.77 455.47 210.60 456.43 Z" id="p39" />
<path d="M 316.65 451.79 C 319.11 450.72 323.97 450.81 325.49 453.46 C 326.43 457.06 325.92 461.15 326.01 464.86 C 323.08 464.96 319.97 465.51 317.06 465.03 C 313.94 463.97 314.95 460.51 314.74 457.96 C 317.85 456.89 321.02 456.04 324.17 455.09 C 321.11 453.56 318.15 453.89 314.85 454.07 C 315.42 453.28 316.02 452.52 316.65 451.79 Z M 323.83 457.93 C 321.17 458.74 318.42 458.30 316.93 461.03 C 318.96 463.43 320.15 463.32 322.74 461.86 C 323.15 460.56 323.51 459.25 323.83 457.93 Z" id="p40" />
<path d="M 340.68 453.30 C 341.73 456.98 341.26 461.20 341.33 465.00 L 338.78 465.00 C 338.76 461.21 338.66 457.43 338.20 453.66 C 336.34 454.01 334.49 454.38 332.65 454.79 C 332.64 458.19 332.64 461.59 332.64 464.99 C 331.76 464.99 330.88 465.00 330.00 465.01 C 330.00 460.57 330.00 456.13 330.00 451.70 C 331.25 451.65 332.51 451.60 333.76 451.54 C 336.18 451.55 339.35 450.57 340.68 453.30 Z" id="p41" />
<path d="M 345.42 452.24 C 346.17 451.76 346.93 451.29 347.70 450.84 C 348.01 455.58 347.91 460.26 347.91 465.00 C 347.00 465.00 346.09 465.00 345.18 465.00 C 345.24 460.79 344.81 456.41 345.42 452.24 Z" id="p42" />
<path d="M 354.08 451.98 C 354.31 455.07 353.93 458.39 354.64 461.41 C 355.28 463.98 358.30 462.53 359.87 461.80 C 360.56 458.51 360.29 454.96 360.32 451.61 C 361.20 451.57 362.07 451.54 362.95 451.51 C 362.98 455.95 362.98 460.39 363.00 464.83 C 360.10 464.63 355.12 466.17 352.82 464.17 C 350.76 460.70 351.81 455.08 351.66 451.16 C 352.47 451.42 353.28 451.69 354.08 451.98 Z" id="p43" />
<path d="M 377.63 452.47 C 380.56 451.68 383.72 449.84 385.82 453.18 C 386.96 456.86 386.45 461.18 386.52 465.00 L 383.98 465.00 C 383.97 461.17 383.87 457.36 383.33 453.57 C 381.54 453.99 379.75 454.43 377.98 454.90 C 378.00 458.27 378.00 461.63 378.00 465.00 C 377.13 465.00 376.26 465.00 375.39 465.00 C 375.37 461.23 375.30 457.47 375.06 453.71 C 373.25 454.04 371.45 454.38 369.65 454.75 C 369.64 458.17 369.64 461.58 369.64 464.99 C 368.76 464.99 367.88 465.00 367.00 465.01 C 367.00 460.56 367.00 456.11 367.00 451.66 C 370.67 451.58 374.10 451.10 377.63 452.47 Z" id="p44" />
<path d="M 410.72 450.74 C 411.06 454.32 410.66 458.11 411.40 461.62 C 412.13 463.73 415.26 462.13 416.91 462.15 C 417.03 458.61 417.07 455.08 417.11 451.54 C 418.00 451.56 418.89 451.57 419.78 451.59 C 419.80 456.11 419.80 460.62 419.79 465.13 C 418.73 464.97 417.66 464.81 416.60 464.66 C 414.23 464.93 410.80 466.25 409.23 463.70 C 407.80 460.56 408.16 456.36 408.41 452.98 C 408.32 451.89 410.08 451.41 410.72 450.74 Z" id="p45" />
<path d="M 260.60 451.15 C 261.63 451.44 262.66 451.75 263.68 452.07 C 265.06 454.90 266.19 457.87 267.38 460.79 C 269.18 457.22 269.57 451.98 274.13 450.90 C 271.95 457.32 268.91 463.42 266.44 469.74 C 265.44 469.84 264.43 469.94 263.42 470.04 C 264.22 468.08 265.04 466.13 265.87 464.18 C 264.05 459.86 262.18 455.57 260.60 451.15 Z" id="p46" />
<path d="M 299.73 452.39 C 300.26 451.89 300.95 451.36 301.80 450.78 C 302.14 455.52 302.04 460.25 302.03 465.00 C 301.17 465.00 300.31 464.99 299.45 464.99 C 299.52 460.84 299.05 456.48 299.73 452.39 Z" id="p47" />
<path d="M 214.44 453.58 C 216.49 453.12 217.61 455.32 218.92 456.47 C 216.14 456.60 213.38 456.60 210.60 456.43 C 211.77 455.47 212.97 454.03 214.44 453.58 Z" id="p48" />
<path d="M 232.06 453.65 C 232.06 456.50 232.06 459.35 232.05 462.20 C 230.11 462.31 227.75 463.41 226.22 461.73 C 225.49 459.78 225.30 457.24 226.29 455.35 C 227.22 453.52 230.31 454.04 232.06 453.65 Z" id="p49" />
<path d="M 255.80 455.31 C 256.61 457.04 256.53 459.96 255.56 461.61 C 254.13 463.41 252.30 462.98 250.28 462.77 C 249.79 460.18 249.81 457.42 249.84 454.80 C 251.73 454.52 254.99 452.67 255.80 455.31 Z" id="p50" />
<path d="M 144.92 457.83 C 144.91 459.30 144.90 460.77 144.90 462.25 C 142.62 462.46 140.41 462.53 138.12 462.43 C 138.65 461.43 139.21 460.46 139.81 459.51 C 141.34 458.64 143.24 458.33 144.92 457.83 Z" id="p51" />
<path d="M 323.83 457.93 C 323.51 459.25 323.15 460.56 322.74 461.86 C 320.15 463.32 318.96 463.43 316.93 461.03 C 318.42 458.30 321.17 458.74 323.83 457.93 Z" id="p52" />
<path d="M 0.00 533.97 C 166.66 534.06 333.34 533.94 500.00 534.03 L 500.00 556.00 L 0.00 556.00 L 0.00 533.97 Z" id="p53" />
</defs>
<g stroke-width="10pt">
<use stroke="#1b1b1b" xlink:href="#p0" />
<use stroke="#60b5ec" xlink:href="#p1" />
<use stroke="#549bc9" xlink:href="#p2" />
<use stroke="#48618f" xlink:href="#p3" />
<use stroke="#183475" xlink:href="#p4" />
<use stroke="#549bc8" xlink:href="#p5" />
<use stroke="#5296c2" xlink:href="#p6" />
<use stroke="#549bc9" xlink:href="#p7" />
<use stroke="#5296c2" xlink:href="#p8" />
<use stroke="#5296c2" xlink:href="#p9" />
<use stroke="#5195c1" xlink:href="#p10" />
<use stroke="#5296c2" xlink:href="#p11" />
<use stroke="#48618f" xlink:href="#p12" />
<use stroke="#549ac7" xlink:href="#p13" />
<use stroke="#5195c1" xlink:href="#p14" />
<use stroke="#5091ba" xlink:href="#p15" />
<use stroke="#5296c1" xlink:href="#p16" />
<use stroke="#5092bd" xlink:href="#p17" />
<use stroke="#5295c0" xlink:href="#p18" />
<use stroke="#549bc8" xlink:href="#p19" />
<use stroke="#60b5ec" xlink:href="#p20" />
<use stroke="#5194bf" xlink:href="#p21" />
<use stroke="#5399c6" xlink:href="#p22" />
<use stroke="#5296c2" xlink:href="#p23" />
<use stroke="#5194bf" xlink:href="#p24" />
<use stroke="#fd7168" xlink:href="#p25" />
<use stroke="#fd7168" xlink:href="#p26" />
<use stroke="#fd7168" xlink:href="#p27" />
<use stroke="#fd7168" xlink:href="#p28" />
<use stroke="#fd7168" xlink:href="#p29" />
<use stroke="#d7625b" xlink:href="#p30" />
<use stroke="#e56860" xlink:href="#p31" />
<use stroke="#fd7168" xlink:href="#p32" />
<use stroke="#fd7168" xlink:href="#p33" />
<use stroke="#fd7168" xlink:href="#p34" />
<use stroke="#fd7168" xlink:href="#p35" />
<use stroke="#fd7168" xlink:href="#p36" />
<use stroke="#fd7168" xlink:href="#p37" />
<use stroke="#fd7168" xlink:href="#p38" />
<use stroke="#fd7168" xlink:href="#p39" />
<use stroke="#fd7168" xlink:href="#p40" />
<use stroke="#fd7168" xlink:href="#p41" />
<use stroke="#fd7168" xlink:href="#p42" />
<use stroke="#fd7168" xlink:href="#p43" />
<use stroke="#fd7168" xlink:href="#p44" />
<use stroke="#fd7168" xlink:href="#p45" />
<use stroke="#fd7168" xlink:href="#p46" />
<use stroke="#fd7168" xlink:href="#p47" />
<use stroke="#1b1b1b" xlink:href="#p48" />
<use stroke="#1b1b1b" xlink:href="#p49" />
<use stroke="#1b1b1b" xlink:href="#p50" />
<use stroke="#1b1b1b" xlink:href="#p51" />
<use stroke="#1b1b1b" xlink:href="#p52" />
<use stroke="#000000" xlink:href="#p53" />
</g>
<g>
<use fill="#1b1b1b" xlink:href="#p0" />
<use fill="#60b5ec" xlink:href="#p1" />
<use fill="#549bc9" xlink:href="#p2" />
<use fill="#48618f" xlink:href="#p3" />
<use fill="#183475" xlink:href="#p4" />
<use fill="#549bc8" xlink:href="#p5" />
<use fill="#5296c2" xlink:href="#p6" />
<use fill="#549bc9" xlink:href="#p7" />
<use fill="#5296c2" xlink:href="#p8" />
<use fill="#5296c2" xlink:href="#p9" />
<use fill="#5195c1" xlink:href="#p10" />
<use fill="#5296c2" xlink:href="#p11" />
<use fill="#48618f" xlink:href="#p12" />
<use fill="#549ac7" xlink:href="#p13" />
<use fill="#5195c1" xlink:href="#p14" />
<use fill="#5091ba" xlink:href="#p15" />
<use fill="#5296c1" xlink:href="#p16" />
<use fill="#5092bd" xlink:href="#p17" />
<use fill="#5295c0" xlink:href="#p18" />
<use fill="#549bc8" xlink:href="#p19" />
<use fill="#60b5ec" xlink:href="#p20" />
<use fill="#5194bf" xlink:href="#p21" />
<use fill="#5399c6" xlink:href="#p22" />
<use fill="#5296c2" xlink:href="#p23" />
<use fill="#5194bf" xlink:href="#p24" />
<use fill="#fd7168" xlink:href="#p25" />
<use fill="#fd7168" xlink:href="#p26" />
<use fill="#fd7168" xlink:href="#p27" />
<use fill="#fd7168" xlink:href="#p28" />
<use fill="#fd7168" xlink:href="#p29" />
<use fill="#d7625b" xlink:href="#p30" />
<use fill="#e56860" xlink:href="#p31" />
<use fill="#fd7168" xlink:href="#p32" />
<use fill="#fd7168" xlink:href="#p33" />
<use fill="#fd7168" xlink:href="#p34" />
<use fill="#fd7168" xlink:href="#p35" />
<use fill="#fd7168" xlink:href="#p36" />
<use fill="#fd7168" xlink:href="#p37" />
<use fill="#fd7168" xlink:href="#p38" />
<use fill="#fd7168" xlink:href="#p39" />
<use fill="#fd7168" xlink:href="#p40" />
<use fill="#fd7168" xlink:href="#p41" />
<use fill="#fd7168" xlink:href="#p42" />
<use fill="#fd7168" xlink:href="#p43" />
<use fill="#fd7168" xlink:href="#p44" />
<use fill="#fd7168" xlink:href="#p45" />
<use fill="#fd7168" xlink:href="#p46" />
<use fill="#fd7168" xlink:href="#p47" />
<use fill="#1b1b1b" xlink:href="#p48" />
<use fill="#1b1b1b" xlink:href="#p49" />
<use fill="#1b1b1b" xlink:href="#p50" />
<use fill="#1b1b1b" xlink:href="#p51" />
<use fill="#1b1b1b" xlink:href="#p52" />
<use fill="#000000" xlink:href="#p53" />
</g>
</svg>