<?xml version="1.0" encoding="UTF-8" standalone="no"?>
<!DOCTYPE svg PUBLIC "-//W3C//DTD SVG 1.1//EN" "http://www.w3.org/Graphics/SVG/1.1/DTD/svg11.dtd">
<svg xmlns="http://www.w3.org/2000/svg" version="1.1" viewBox="0 0 196 230" width="196.0pt" height="230.0pt">
<path d="M 0.00 0.00 L 196.00 0.00 L 196.00 230.00 L 0.00 230.00 L 0.00 0.00 Z" fill="#1d1d1d" />
<path d="M 182.62 40.88 C 182.80 55.62 182.80 70.41 182.61 85.15 C 178.72 87.93 174.49 90.02 170.19 92.07 C 165.69 93.79 161.38 95.70 157.22 98.13 C 134.57 110.13 111.95 122.27 89.28 134.22 C 85.56 136.32 80.05 137.94 77.51 141.46 C 76.26 147.07 77.19 153.27 77.01 159.00 C 76.82 167.59 77.41 176.20 76.76 184.76 C 68.96 185.25 61.04 185.25 53.24 184.76 C 52.36 174.39 53.66 164.13 52.73 153.75 C 49.03 154.13 46.17 155.03 42.89 156.76 C 36.60 160.06 29.88 162.15 23.75 165.75 C 20.72 167.52 17.60 168.93 14.30 170.13 C 13.51 161.08 14.29 152.09 13.91 143.01 C 13.67 138.08 14.04 133.45 15.50 128.73 C 34.71 118.93 53.57 108.47 72.69 98.51 C 104.35 81.46 136.16 64.66 167.89 47.76 C 172.86 45.15 177.02 42.10 182.62 40.88 Z" fill="#73beef" />
<path d="M 170.19 92.07 C 164.52 95.53 158.74 98.63 152.81 101.61 C 130.19 113.68 107.65 125.89 84.89 137.68 C 82.60 138.89 80.42 140.27 78.28 141.71 C 78.11 156.52 78.42 171.34 78.15 186.14 C 69.41 186.32 60.61 186.32 51.88 186.16 C 51.48 175.46 52.12 164.74 51.62 154.06 C 45.34 156.23 39.72 159.73 33.56 162.23 C 26.66 165.08 20.40 169.10 13.43 171.78 C 12.88 169.23 12.48 166.68 12.53 164.06 C 12.59 153.75 12.57 143.41 12.65 133.10 C 12.55 130.95 14.07 130.01 15.50 128.73 C 14.04 133.45 13.67 138.08 13.91 143.01 C 14.29 152.09 13.51 161.08 14.30 170.13 C 17.60 168.93 20.72 167.52 23.75 165.75 C 29.88 162.15 36.60 160.06 42.89 156.76 C 46.17 155.03 49.03 154.13 52.73 153.75 C 53.66 164.13 52.36 174.39 53.24 184.76 C 61.04 185.25 68.96 185.25 76.76 184.76 C 77.41 176.20 76.82 167.59 77.01 159.00 C 77.19 153.27 76.26 147.07 77.51 141.46 C 80.05 137.94 85.56 136.32 89.28 134.22 C 111.95 122.27 134.57 110.13 157.22 98.13 C 161.38 95.70 165.69 93.79 170.19 92.07 Z" fill="#73beef" />
<path d="M 178.77 102.17 C 178.89 103.13 179.00 104.09 179.11 105.06 C 175.59 107.33 172.00 109.36 168.24 111.20 C 160.01 115.20 152.12 119.85 143.85 123.79 C 141.69 125.09 138.51 126.21 138.36 129.16 C 137.58 135.03 138.65 141.20 138.05 147.08 C 137.87 149.13 136.30 151.04 135.32 152.82 C 133.76 146.49 134.42 140.60 133.86 134.02 C 133.86 131.16 133.20 127.29 134.64 124.73 C 137.97 122.23 142.18 120.84 145.85 118.87 C 154.37 114.40 162.90 109.94 171.29 105.24 C 173.66 103.92 176.19 102.98 178.77 102.17 Z" fill="#566d9a" />
<path d="M 179.11 105.06 C 179.37 108.74 179.10 112.34 178.91 116.00 C 178.34 130.70 179.45 145.30 179.17 160.00 C 178.96 168.73 179.80 177.03 178.58 185.54 C 170.69 186.20 162.94 185.72 155.00 185.82 C 148.76 185.74 142.43 186.16 136.21 185.62 C 136.17 180.15 136.65 174.60 136.23 169.15 C 136.09 167.36 134.65 166.27 133.37 165.22 C 126.63 164.54 119.74 165.25 112.95 165.27 C 110.60 165.57 106.71 165.03 106.59 168.39 C 105.94 173.89 106.56 179.48 105.96 185.01 C 102.08 185.94 98.24 186.51 94.25 185.97 C 94.51 180.98 94.70 176.00 94.64 171.00 C 94.63 164.36 94.05 157.95 95.13 151.35 C 98.61 148.94 102.31 146.82 105.65 144.24 C 105.93 148.46 105.91 152.63 106.85 156.78 C 110.23 156.69 113.61 156.51 116.98 156.31 C 122.60 155.96 128.19 156.59 133.80 156.15 C 134.29 155.03 134.78 153.92 135.32 152.82 C 136.30 151.04 137.87 149.13 138.05 147.08 C 138.65 141.20 137.58 135.03 138.36 129.16 C 138.51 126.21 141.69 125.09 143.85 123.79 C 152.12 119.85 160.01 115.20 168.24 111.20 C 172.00 109.36 175.59 107.33 179.11 105.06 Z" fill="#233e80" />
<path d="M 105.38 142.47 L 105.65 144.24 C 102.31 146.82 98.61 148.94 95.13 151.35 C 94.05 157.95 94.63 164.36 94.64 171.00 C 94.70 176.00 94.51 180.98 94.25 185.97 C 93.25 185.86 92.26 185.75 91.26 185.64 C 89.99 180.00 90.65 174.71 90.59 169.00 C 90.65 163.98 90.39 158.95 90.53 153.93 C 90.71 151.80 90.47 149.88 92.48 148.55 C 96.37 145.85 100.89 143.95 105.38 142.47 Z" fill="#566d9a" />
<path d="M 133.37 165.22 C 134.65 166.27 136.09 167.36 136.23 169.15 C 136.65 174.60 136.17 180.15 136.21 185.62 C 135.42 185.55 134.62 185.47 133.82 185.39 C 133.56 178.60 134.04 171.95 133.37 165.22 Z" fill="#73beef" />
</svg>