<?xml version="1.0" encoding="UTF-8" standalone="no"?>
<!DOCTYPE svg PUBLIC "-//W3C//DTD SVG 1.1//EN" "http://www.w3.org/Graphics/SVG/1.1/DTD/svg11.dtd">
<svg xmlns="http://www.w3.org/2000/svg" version="1.1" viewBox="0 0 100 133" width="100.0pt" height="133.0pt">
<path d="M 0.00 0.00 L 100.00 0.00 L 100.00 133.00 L 0.00 133.00 L 0.00 0.00 Z" fill="#ffffff" />
<path d="M 91.88 20.46 C 92.07 28.24 92.08 36.03 91.96 43.81 C 74.33 52.98 56.99 62.71 39.33 71.81 C 39.20 79.26 39.36 86.72 39.24 94.17 C 34.88 94.29 30.53 94.30 26.17 94.20 C 26.43 88.82 26.62 83.49 25.81 78.14 C 19.39 81.35 12.91 84.49 6.34 87.38 C 6.03 80.41 6.08 73.35 6.65 66.39 C 7.80 65.28 9.35 64.52 10.74 63.75 C 24.50 56.60 38.11 49.15 51.84 41.94 C 65.15 34.71 78.65 27.83 91.88 20.46 Z" fill="#85c6f1" />
<path d="M 89.59 51.57 C 89.94 65.75 89.87 79.96 89.90 94.15 C 86.74 94.10 83.59 94.08 80.43 94.05 C 80.53 95.02 80.62 95.98 80.71 96.94 C 82.46 97.18 84.13 97.26 85.88 97.21 C 86.36 98.10 86.83 98.98 87.29 99.87 C 88.07 98.36 88.70 97.33 90.21 96.45 C 89.10 99.71 87.88 102.86 85.75 105.61 C 85.95 104.10 86.19 102.60 86.47 101.11 C 85.84 100.11 85.22 99.04 84.49 98.12 C 84.16 99.28 83.83 100.44 83.48 101.59 C 82.39 102.36 80.48 101.98 79.18 102.16 C 79.16 99.44 79.21 96.72 79.43 94.00 C 77.99 94.04 76.55 94.07 75.12 94.10 C 75.06 96.83 75.01 99.56 74.99 102.29 C 73.42 102.09 71.87 101.86 70.32 101.55 C 68.51 101.89 67.11 102.62 65.34 101.68 C 64.45 99.99 65.28 98.50 65.77 96.86 C 66.99 96.92 68.20 96.99 69.42 97.06 C 68.95 99.42 67.81 99.89 65.89 101.10 C 67.09 101.00 68.28 100.91 69.48 100.81 C 70.02 99.57 70.58 98.34 71.14 97.11 C 72.08 97.01 73.04 96.94 74.00 96.91 C 74.00 95.99 74.00 95.07 74.00 94.15 C 71.79 94.06 69.58 93.95 67.38 93.86 C 67.10 90.46 66.65 87.08 66.48 83.66 C 62.44 84.15 58.33 83.79 54.32 84.37 C 52.30 88.24 54.29 95.26 54.08 99.63 C 54.73 98.74 55.38 97.86 56.03 96.98 C 56.98 96.99 57.93 96.99 58.88 97.00 C 59.09 98.79 59.29 100.59 59.56 102.38 C 58.07 102.24 56.66 102.16 55.20 101.87 L 54.75 98.96 C 54.45 99.95 54.16 100.95 53.89 101.95 C 52.91 102.08 51.93 102.21 50.95 102.34 C 50.10 101.57 49.26 100.80 48.39 100.06 C 48.03 100.82 47.67 101.58 47.32 102.34 C 46.22 102.20 45.11 102.05 44.01 101.89 C 43.96 100.67 43.98 99.45 44.09 98.24 C 45.01 96.15 48.17 96.55 48.31 98.99 C 48.54 98.92 48.77 98.84 49.00 98.77 C 50.29 97.43 51.23 97.06 52.99 96.60 C 53.00 95.79 53.00 94.98 53.00 94.17 C 50.46 94.05 47.93 93.90 45.39 93.74 C 45.54 87.78 45.41 81.81 45.53 75.84 C 48.02 74.40 50.55 73.05 53.15 71.83 C 53.29 74.40 53.41 76.97 53.51 79.55 C 57.92 79.32 62.33 79.26 66.75 79.25 C 67.37 74.11 67.27 68.96 67.37 63.79 C 74.45 59.22 82.32 55.87 89.59 51.57 Z" fill="#2f498b" />
<path d="M 61.90 95.10 C 62.67 95.78 63.44 96.46 64.19 97.16 C 62.76 98.85 62.99 100.68 62.66 102.74 C 61.20 101.62 61.54 100.23 61.29 98.59 C 60.76 98.23 60.23 97.87 59.71 97.51 C 60.43 96.70 61.16 95.90 61.90 95.10 Z" fill="#2f498b" />
<path d="M 15.29 98.10 C 15.86 97.75 16.45 97.42 17.04 97.11 C 20.07 96.35 19.38 97.84 19.98 100.13 C 20.53 98.90 21.23 97.86 22.08 97.00 C 23.16 96.98 24.24 97.00 25.32 97.06 C 24.23 97.56 23.14 98.03 22.03 98.48 C 22.00 99.28 21.96 100.07 21.93 100.87 C 23.11 101.00 24.29 101.13 25.48 101.26 C 23.15 102.49 21.26 103.15 20.30 99.84 L 19.92 102.42 C 18.44 102.23 16.97 101.98 15.49 101.80 C 14.02 102.07 12.38 102.74 10.99 101.84 C 9.61 100.89 9.71 98.93 10.80 97.78 C 11.79 96.17 14.12 97.16 15.29 98.10 Z" fill="#2f498b" />
<path d="M 30.61 97.01 C 29.49 97.53 28.36 98.04 27.23 98.54 C 27.09 99.35 27.01 100.15 26.98 100.96 C 28.19 101.00 29.41 101.06 30.62 101.13 C 29.09 102.57 27.71 102.17 25.80 102.06 C 25.84 100.76 25.93 99.47 26.10 98.18 C 27.14 96.22 28.77 97.25 30.61 97.01 Z" fill="#2f498b" />
<path d="M 34.51 97.05 C 34.99 97.94 35.47 98.83 35.95 99.72 L 36.08 96.78 C 38.25 96.90 40.58 96.76 42.69 97.32 C 43.36 99.30 43.09 101.19 42.46 103.13 C 41.99 101.29 41.57 99.44 41.07 97.61 C 40.41 99.08 40.13 100.69 40.22 102.43 L 39.05 102.70 C 38.99 101.02 38.91 99.35 38.83 97.68 C 38.09 99.36 37.46 101.07 36.80 102.78 C 36.27 101.54 35.74 100.29 35.22 99.03 C 35.03 102.98 33.76 102.11 31.01 102.10 C 30.96 100.81 30.99 99.52 31.08 98.24 C 32.06 96.54 32.83 97.02 34.51 97.05 Z" fill="#2f498b" />
<path d="M 12.93 98.32 C 13.74 99.40 12.76 102.16 11.64 100.14 C 11.62 99.13 12.05 98.52 12.93 98.32 Z" fill="#ffffff" />
<path d="M 17.93 98.32 C 18.74 99.40 17.76 102.17 16.64 100.14 C 16.62 99.13 17.05 98.52 17.93 98.32 Z" fill="#ffffff" />
<path d="M 33.94 98.22 C 34.16 99.16 34.13 100.08 33.83 100.96 C 31.07 101.61 31.52 97.94 33.94 98.22 Z" fill="#ffffff" />
<path d="M 46.94 98.22 C 47.16 99.17 47.13 100.08 46.83 100.96 C 44.07 101.61 44.52 97.94 46.94 98.22 Z" fill="#ffffff" />
<path d="M 51.03 98.31 C 52.72 97.30 53.66 99.60 52.60 100.78 C 50.89 101.74 49.73 99.54 51.03 98.31 Z" fill="#ffffff" />
<path d="M 57.94 98.02 C 58.25 99.04 58.21 100.02 57.84 100.94 L 56.13 101.02 C 55.43 99.62 56.17 97.70 57.94 98.02 Z" fill="#ffffff" />
<path d="M 67.03 98.52 C 67.03 98.53 67.03 98.53 67.03 98.52 Z" fill="#85c6f1" />
<path d="M 72.03 98.31 C 73.72 97.30 74.66 99.59 73.60 100.78 C 71.89 101.73 70.73 99.54 72.03 98.31 Z" fill="#ffffff" />
<path d="M 83.05 100.00 C 82.66 100.87 81.94 101.19 80.89 100.95 L 80.65 99.08 C 81.43 97.08 83.43 98.17 83.05 100.00 Z" fill="#ffffff" />
<path d="M 25.17 108.59 L 25.99 108.60 L 26.38 109.32 L 25.96 110.03 L 25.14 110.03 L 24.75 109.30 L 25.17 108.59 Z" fill="#2f498b" />
<path d="M 42.99 108.59 L 43.82 108.58 L 44.24 109.29 L 43.85 110.01 L 43.03 110.02 L 42.60 109.31 L 42.99 108.59 Z" fill="#2f498b" />
<path d="M 61.13 108.44 L 62.64 108.47 C 62.62 109.64 62.59 110.82 62.56 112.00 C 63.75 111.99 64.93 111.98 66.11 111.97 C 66.21 111.06 66.30 110.14 66.39 109.23 C 66.82 108.85 67.26 108.48 67.69 108.10 C 67.93 109.68 68.18 111.27 68.44 112.84 L 69.89 110.17 C 69.97 111.78 70.04 113.39 70.09 115.00 L 71.91 115.00 C 71.94 113.65 71.97 112.31 72.00 110.96 L 73.02 110.95 C 73.01 112.80 73.00 114.64 73.00 116.49 C 71.06 115.91 68.95 116.89 68.68 114.16 C 68.48 114.12 68.28 114.09 68.08 114.05 L 66.91 116.63 C 66.48 115.34 66.08 114.05 65.68 112.75 C 63.06 113.31 62.35 115.01 61.01 117.03 C 60.98 114.17 61.02 111.30 61.13 108.44 Z" fill="#2f498b" />
<path d="M 21.65 108.95 C 22.21 110.05 23.08 110.94 24.26 111.61 C 23.60 111.87 22.92 112.09 22.23 112.26 C 22.17 114.01 22.20 115.51 21.28 117.04 C 20.71 115.10 21.78 112.35 19.36 111.64 C 20.12 110.74 20.93 109.89 21.65 108.95 Z" fill="#2f498b" />
<path d="M 28.76 108.97 C 29.58 109.69 30.39 110.42 31.18 111.16 C 29.77 112.86 29.98 114.72 29.61 116.79 C 28.24 114.08 26.10 111.58 28.76 108.97 Z" fill="#2f498b" />
<path d="M 75.42 108.98 C 76.37 109.84 77.32 110.70 78.27 111.55 C 77.74 111.84 77.20 112.14 76.66 112.45 C 76.54 114.16 76.76 115.48 75.48 116.80 C 75.13 114.83 75.05 112.96 73.97 111.22 C 74.45 110.48 74.94 109.73 75.42 108.98 Z" fill="#2f498b" />
<path d="M 24.88 111.00 L 26.03 111.00 C 26.02 112.87 26.01 114.73 25.89 116.60 C 24.24 115.21 25.02 112.88 24.88 111.00 Z" fill="#2f498b" />
<path d="M 32.91 111.00 C 33.94 110.97 34.97 110.94 36.00 110.92 C 36.01 112.44 36.01 113.96 36.01 115.48 L 36.99 115.50 C 36.99 113.90 36.99 112.31 37.00 110.71 C 38.26 110.81 39.51 110.94 40.77 111.10 L 41.87 115.18 C 42.20 113.43 42.83 111.84 43.73 110.39 C 43.90 112.16 44.00 113.93 44.08 115.71 C 42.72 115.79 41.37 115.88 40.02 115.98 C 39.97 114.51 39.91 113.03 39.83 111.56 C 38.97 113.04 38.32 114.57 37.76 116.17 C 35.79 116.15 33.81 116.14 31.84 116.09 C 31.79 114.11 31.56 112.63 32.91 111.00 Z" fill="#2f498b" />
<path d="M 44.96 110.90 L 45.97 110.95 C 46.36 113.09 45.26 114.65 47.94 115.32 C 47.97 113.85 48.00 112.38 48.01 110.91 L 49.19 111.01 C 49.21 112.80 49.23 114.58 49.25 116.37 C 47.84 116.25 46.43 116.12 45.02 115.99 C 44.99 114.29 44.98 112.60 44.96 110.90 Z" fill="#2f498b" />
<path d="M 49.74 110.77 C 52.02 110.90 54.46 110.74 56.69 111.32 C 57.36 113.31 57.08 115.19 56.45 117.14 C 55.99 115.29 55.57 113.44 55.07 111.61 C 54.41 113.08 54.13 114.68 54.22 116.42 L 53.07 116.70 C 52.98 115.02 52.87 113.33 52.75 111.65 C 52.17 113.26 51.62 114.86 51.07 116.48 C 49.33 115.07 50.03 112.79 49.74 110.77 Z" fill="#2f498b" />
<path d="M 34.94 112.02 C 35.25 113.05 35.21 114.02 34.84 114.94 L 33.13 115.02 C 32.43 113.62 33.17 111.70 34.94 112.02 Z" fill="#ffffff" />
<path d="M 78.95 115.08 L 79.76 115.07 L 80.18 115.79 L 79.78 116.52 L 78.96 116.53 L 78.55 115.81 L 78.95 115.08 Z" fill="#2f498b" />
</svg>