<svg xmlns="http://www.w3.org/2000/svg" width="16" height="16" class="l" viewBox="0 0 16 16"></svg><svg xmlns="http://www.w3.org/2000/svg" version="1.1" viewBox="0 0 56 56" width="25.0pt" height="56.0pt">
          <path d="M 0.00 0.00 L 56.00 0.00 L 56.00 56.00 L 0.00 56.00 L 0.00 0.00 Z" fill="#3a76f0" />
          <path d="M 31.56 8.99 C 31.09 9.76 30.54 10.29 29.93 10.60 C 27.95 10.64 25.26 11.57 24.65 8.99 C 26.95 8.80 29.25 8.83 31.56 8.99 Z" fill="#ffffff" />
          <path d="M 23.19 9.29 L 24.13 10.78 C 22.40 11.54 20.65 12.27 18.92 13.04 C 18.58 12.48 18.24 11.92 17.90 11.36 C 19.65 10.64 21.40 9.90 23.19 9.29 Z" fill="#ffffff" />
          <path d="M 38.12 11.35 C 37.77 11.92 37.43 12.48 37.08 13.05 C 35.27 12.23 33.43 11.47 31.64 10.62 C 33.19 8.06 36.05 10.95 38.12 11.35 Z" fill="#ffffff" />
          <path d="M 42.63 22.38 C 45.63 29.74 42.12 38.58 35.00 42.02 C 30.70 44.20 26.13 44.14 21.72 42.31 C 18.71 40.85 16.30 42.17 13.25 42.75 C 13.70 40.81 14.27 38.81 14.43 36.83 C 13.64 33.38 11.98 30.68 12.34 26.97 C 12.77 20.35 17.52 14.53 23.95 12.86 C 31.53 10.69 39.90 15.01 42.63 22.38 Z" fill="#ffffff" />
          <path d="M 16.35 12.41 L 17.67 13.80 C 16.38 15.08 15.09 16.36 13.81 17.65 L 12.42 16.40 C 13.08 15.73 13.73 15.06 14.39 14.39 C 15.04 13.73 15.70 13.07 16.35 12.41 Z" fill="#ffffff" />
          <path d="M 39.67 12.36 C 40.93 14.09 44.11 15.50 42.63 17.97 C 41.18 16.61 39.75 15.21 38.33 13.82 L 39.67 12.36 Z" fill="#ffffff" />
          <path d="M 11.34 18.34 C 11.96 18.39 12.57 18.46 13.18 18.54 C 12.40 20.33 11.66 22.13 10.88 23.92 L 9.12 23.38 C 9.81 21.69 10.44 19.93 11.34 18.34 Z" fill="#ffffff" />
          <path d="M 44.49 17.70 C 45.31 19.58 46.08 21.49 46.86 23.39 L 45.09 23.93 C 44.40 22.33 43.74 20.71 43.12 19.07 C 43.57 18.61 44.03 18.15 44.49 17.70 Z" fill="#ffffff" />
          <path d="M 8.89 24.73 L 10.67 25.42 C 10.49 27.80 11.57 30.27 9.00 31.55 C 8.89 29.28 8.86 27.01 8.89 24.73 Z" fill="#ffffff" />
          <path d="M 45.23 25.19 L 47.14 24.98 C 47.14 27.17 47.10 29.36 47.00 31.55 C 44.45 30.34 45.57 27.49 45.23 25.19 Z" fill="#ffffff" />
          <path d="M 10.68 31.59 C 12.06 34.60 13.47 36.93 12.19 40.33 C 11.18 38.03 9.90 35.53 9.55 33.03 C 9.83 32.61 10.21 32.13 10.68 31.59 Z" fill="#ffffff" />
          <path d="M 45.11 32.08 L 46.85 32.61 C 46.11 34.44 45.37 36.28 44.61 38.11 C 44.06 37.76 43.51 37.42 42.97 37.08 C 43.70 35.42 44.39 33.74 45.11 32.08 Z" fill="#ffffff" />
          <path d="M 42.18 38.33 L 43.64 39.66 C 41.90 40.90 40.50 44.07 38.03 42.64 C 39.39 41.18 40.78 39.75 42.18 38.33 Z" fill="#ffffff" />
          <path d="M 10.08 40.71 L 12.07 41.11 C 11.77 42.35 11.47 43.59 11.17 44.83 C 12.41 44.53 13.65 44.23 14.88 43.93 L 15.28 45.93 C 13.68 46.18 12.05 46.57 10.43 46.61 C 8.36 45.57 10.08 42.49 10.08 40.71 Z" fill="#ffffff" />
          <path d="M 18.97 43.07 C 20.64 43.70 22.31 44.36 23.93 45.08 L 23.42 46.81 C 20.85 45.86 18.23 45.03 15.70 43.94 C 16.79 43.62 17.88 43.33 18.97 43.07 Z" fill="#ffffff" />
          <path d="M 36.91 43.07 C 37.38 43.55 37.84 44.03 38.31 44.51 C 36.24 45.38 34.17 46.23 32.04 46.93 C 32.33 44.09 34.77 44.10 36.91 43.07 Z" fill="#ffffff" />
          <path d="M 25.19 45.23 C 27.49 45.57 30.34 44.45 31.55 47.00 C 29.36 47.10 27.17 47.14 24.98 47.14 L 25.19 45.23 Z" fill="#ffffff" />
          </svg>